# xmcd CD database file
#
# Track frame offsets:
#	150
#	17635
#	39116
#	72390
#	101387
#	122720
#	131565
#	153778
#	168750
#	185095
#	210224
#	225060
#	245217
#
# Disc length: 3458 seconds
#
# Revision: 0
# Processed by: cddbd v1.5PL3 Copyright (c) Steve Scherf et al.
# Submitted via: CDex 1.51
#
DISCID=990d800d
DTITLE=Mystere Trio - .. Comme L'air
DYEAR=2003
DGENRE=Jazz
TTITLE0=Splendide
TTITLE1=Carina
TTITLE2=Casamance
TTITLE3=Comme l'air
TTITLE4=Incaco
TTITLE5=Con elegencia
TTITLE6=Polo de gomot
TTITLE7=Buster
TTITLE8=Benny Bop
TTITLE9=Djalousie
TTITLE10=Salidad
TTITLE11=Spanouch
TTITLE12=Carwa de papi
EXTD=YEAR: 2003
EXTT0=
EXTT1=
EXTT2=
EXTT3=
EXTT4=
EXTT5=
EXTT6=
EXTT7=
EXTT8=
EXTT9=
EXTT10=
EXTT11=
EXTT12=
PLAYORDER=
